<?xml version="1.0" encoding="UTF-8"?>
<svg version="1.1" xmlns="http://www.w3.org/2000/svg" width="699" height="699">
<path d="M0 0 C1.64874367 -0.00855011 1.64874367 -0.00855011 3.33079529 -0.01727295 C5.65110328 -0.0266667 7.97142428 -0.03323436 10.29174805 -0.03710938 C13.74748847 -0.04670532 17.20260451 -0.07773802 20.65820312 -0.109375 C41.58161797 -0.20973898 62.15744091 1.80056401 82.68359375 5.890625 C83.9687085 6.14408691 85.25382324 6.39754883 86.57788086 6.65869141 C135.90653892 16.6423999 182.94250922 38.19137038 223.24609375 68.203125 C223.7786377 68.59677246 224.31118164 68.99041992 224.85986328 69.39599609 C228.71584815 72.2572656 232.50182142 75.19726936 236.24609375 78.203125 C236.77654297 78.62770996 237.30699219 79.05229492 237.85351562 79.48974609 C247.33481344 87.17551602 255.97920966 95.72799061 264.62109375 104.328125 C265.17912689 104.88089111 265.73716003 105.43365723 266.31210327 106.00317383 C273.42861436 113.06772429 280.04142152 120.30766046 286.24609375 128.203125 C287.40712874 129.63966517 288.56855966 131.07588548 289.73046875 132.51171875 C314.37484764 163.48210587 333.47588107 198.75978478 346.24609375 236.203125 C346.77178955 237.74323242 346.77178955 237.74323242 347.30810547 239.31445312 C357.57052927 269.87934837 364.31459035 302.61447242 364.44921875 334.95703125 C364.45491882 336.0561937 364.4606189 337.15535614 364.4664917 338.28782654 C364.47588545 340.60813453 364.48245311 342.92845553 364.48632812 345.2487793 C364.49592407 348.70451972 364.52695677 352.15963576 364.55859375 355.61523438 C364.65895773 376.53864922 362.64865474 397.11447216 358.55859375 417.640625 C358.30513184 418.92573975 358.05166992 420.21085449 357.79052734 421.53491211 C347.80681885 470.86357017 326.25784837 517.89954047 296.24609375 558.203125 C295.85244629 558.73566895 295.45879883 559.26821289 295.05322266 559.81689453 C292.19195315 563.6728794 289.25194939 567.45885267 286.24609375 571.203125 C285.82150879 571.73357422 285.39692383 572.26402344 284.95947266 572.81054688 C277.27370273 582.29184469 268.72122814 590.93624091 260.12109375 599.578125 C259.56832764 600.13615814 259.01556152 600.69419128 258.44604492 601.26913452 C251.38149446 608.38564561 244.14155829 614.99845277 236.24609375 621.203125 C234.80955358 622.36415999 233.37333327 623.52559091 231.9375 624.6875 C200.96711288 649.33187889 165.68943397 668.43291232 128.24609375 681.203125 C126.70598633 681.7288208 126.70598633 681.7288208 125.13476562 682.26513672 C94.56987038 692.52756052 61.83474633 699.2716216 29.4921875 699.40625 C28.39302505 699.41195007 27.29386261 699.41765015 26.16139221 699.42352295 C23.84108422 699.4329167 21.52076322 699.43948436 19.20043945 699.44335938 C15.74469903 699.45295532 12.28958299 699.48398802 8.83398438 699.515625 C-12.08943047 699.61598898 -32.66525341 697.60568599 -53.19140625 693.515625 C-54.476521 693.26216309 -55.76163574 693.00870117 -57.08569336 692.74755859 C-106.41435142 682.7638501 -153.45032172 661.21487962 -193.75390625 631.203125 C-194.2864502 630.80947754 -194.81899414 630.41583008 -195.36767578 630.01025391 C-199.22366065 627.1489844 -203.00963392 624.20898064 -206.75390625 621.203125 C-207.28435547 620.77854004 -207.81480469 620.35395508 -208.36132812 619.91650391 C-217.84262594 612.23073398 -226.48702216 603.67825939 -235.12890625 595.078125 C-235.68693939 594.52535889 -236.24497253 593.97259277 -236.81991577 593.40307617 C-243.93642686 586.33852571 -250.54923402 579.09858954 -256.75390625 571.203125 C-257.91494124 569.76658483 -259.07637216 568.33036452 -260.23828125 566.89453125 C-284.88266014 535.92414413 -303.98369357 500.64646522 -316.75390625 463.203125 C-317.27960205 461.66301758 -317.27960205 461.66301758 -317.81591797 460.09179688 C-328.07834177 429.52690163 -334.82240285 396.79177758 -334.95703125 364.44921875 C-334.96558136 362.80047508 -334.96558136 362.80047508 -334.9743042 361.11842346 C-334.98369795 358.79811547 -334.99026561 356.47779447 -334.99414062 354.1574707 C-335.00373657 350.70173028 -335.03476927 347.24661424 -335.06640625 343.79101562 C-335.16677023 322.86760078 -333.15646724 302.29177784 -329.06640625 281.765625 C-328.81294434 280.48051025 -328.55948242 279.19539551 -328.29833984 277.87133789 C-318.31463135 228.54267983 -296.76566087 181.50670953 -266.75390625 141.203125 C-266.36025879 140.67058105 -265.96661133 140.13803711 -265.56103516 139.58935547 C-262.69976565 135.7333706 -259.75976189 131.94739733 -256.75390625 128.203125 C-256.32932129 127.67267578 -255.90473633 127.14222656 -255.46728516 126.59570312 C-247.78151523 117.11440531 -239.22904064 108.47000909 -230.62890625 99.828125 C-229.79975708 98.99107529 -229.79975708 98.99107529 -228.95385742 98.13711548 C-221.88930696 91.02060439 -214.64937079 84.40779723 -206.75390625 78.203125 C-205.31736608 77.04209001 -203.88114577 75.88065909 -202.4453125 74.71875 C-171.47492538 50.07437111 -136.19724647 30.97333768 -98.75390625 18.203125 C-97.21379883 17.6774292 -97.21379883 17.6774292 -95.64257812 17.14111328 C-65.07768288 6.87868948 -32.34255883 0.1346284 0 0 Z " fill="#5C87BC" transform="translate(334.75390625,-0.203125)"/>
<path d="M0 0 C0.89565674 -0.00776459 1.79131348 -0.01552917 2.71411133 -0.02352905 C18.60430194 -0.13193069 33.68316376 1.08645215 48.5625 7.125 C49.8925708 7.652146 49.8925708 7.652146 51.24951172 8.18994141 C63.22116296 13.05089184 72.48336769 19.26939921 81.75 28.375 C82.60078125 29.20128906 83.4515625 30.02757812 84.328125 30.87890625 C95.04675618 41.92601161 105.75 59.52961682 105.75 75.375 C104.68152832 75.57657715 103.61305664 75.7781543 102.51220703 75.98583984 C98.50510507 76.74196667 94.49813887 77.49881089 90.49121094 78.25585938 C88.76501027 78.58189802 87.03877403 78.90774842 85.3125 79.23339844 C83.63566094 79.54974655 81.95888194 79.86641317 80.28216553 80.18341064 C78.64813268 80.49206805 77.0138971 80.79965425 75.37945557 81.10614014 C70.48108096 82.02894135 65.60574028 83.01817144 60.75341797 84.16259766 C58.20951953 84.43230173 56.20143874 84.08025449 53.75 83.375 C52.6328125 81.44140625 52.6328125 81.44140625 51.875 78.9375 C47.3312019 66.16377039 37.85156089 56.24829088 25.75 50.375 C9.93283566 42.99106579 -11.70444528 42.14553381 -28.3125 47.4375 C-47.42189716 54.74463791 -60.16071489 66.17334851 -68.96875 84.4921875 C-79.41327813 107.99237579 -78.85002043 137.67210614 -73.25 162.375 C-73.05664062 163.426875 -72.86328125 164.47875 -72.6640625 165.5625 C-68.98305431 183.53729322 -57.79565065 199.77059574 -42.73828125 210.09765625 C-26.40893231 220.27536684 -6.90525839 222.84348908 11.875 219.25 C25.8668668 215.77215969 39.54599766 210.09132504 51.75 202.375 C52.64009766 201.8186084 53.53019531 201.2622168 54.44726562 200.68896484 C57.05139849 198.51565325 57.05139849 198.51565325 57.31762695 195.07519531 C57.27835083 193.15852051 57.27835083 193.15852051 57.23828125 191.203125 C57.22579346 189.9543457 57.21330566 188.70556641 57.20043945 187.41894531 C57.15491943 185.83694336 57.10939941 184.25494141 57.0625 182.625 C56.959375 177.5925 56.85625 172.56 56.75 167.375 C27.545 166.88 27.545 166.88 -2.25 166.375 C-2.25 152.185 -2.25 137.995 -2.25 123.375 C34.71 123.375 71.67 123.375 109.75 123.375 C109.95625 140.205 110.1625 157.035 110.375 174.375 C110.46604004 179.67949219 110.55708008 184.98398437 110.65087891 190.44921875 C110.69604492 196.95117187 110.69604492 196.95117187 110.70443726 199.99975586 C110.71974511 202.11878482 110.75481948 204.23772919 110.80575562 206.35620117 C111.21458277 224.26233711 111.21458277 224.26233711 107.58067322 229.5042572 C105.04146057 231.56745901 102.69975068 232.98652458 99.75 234.375 C98.56521087 235.18932914 97.39248737 236.02177997 96.23828125 236.87890625 C70.07317327 253.8395605 38.04682233 264.9498603 6.75 265.375 C5.73292969 265.40207031 4.71585938 265.42914063 3.66796875 265.45703125 C0.6898771 265.50184521 -2.27257227 265.45181325 -5.25 265.375 C-6.54679687 265.35824219 -7.84359375 265.34148437 -9.1796875 265.32421875 C-28.72592205 264.82679129 -48.25481177 260.3973973 -65.5625 251.25 C-66.48240723 250.76499023 -67.40231445 250.27998047 -68.35009766 249.78027344 C-78.5478809 244.29233863 -87.30517467 237.83796611 -95.25 229.375 C-96.4565625 228.26125 -96.4565625 228.26125 -97.6875 227.125 C-113.91638341 209.70863732 -124.44341279 185.70990103 -128.25 162.375 C-128.41483887 161.59471436 -128.57967773 160.81442871 -128.74951172 160.01049805 C-130.51751196 151.01830056 -130.62227041 142.12604352 -130.62060547 132.99633789 C-130.62495285 130.34129368 -130.66131135 127.68795221 -130.69921875 125.03320312 C-130.91753914 91.8879007 -118.61155839 58.48609853 -95.4453125 34.54296875 C-68.57289946 7.54728776 -37.11735043 0.14725888 0 0 Z " fill="#FEFEFE" transform="translate(223.25,210.625)"/>
<path d="M0 0 C0.99773437 -0.00315216 1.99546875 -0.00630432 3.0234375 -0.009552 C4.65152344 -0.00651566 4.65152344 -0.00651566 6.3125 -0.00341797 C7.41851562 -0.00437469 8.52453125 -0.00533142 9.6640625 -0.00631714 C12.00781308 -0.00699913 14.35156553 -0.00514351 16.6953125 -0.00097656 C20.29691788 0.00437139 23.89839853 -0.00092093 27.5 -0.00732422 C29.77083361 -0.00666344 32.04166714 -0.00538229 34.3125 -0.00341797 C35.94058594 -0.00645432 35.94058594 -0.00645432 37.6015625 -0.009552 C38.59929687 -0.00639984 39.59703125 -0.00324768 40.625 0 C41.50800781 0.00079559 42.39101563 0.00159119 43.30078125 0.00241089 C45.3125 0.12939453 45.3125 0.12939453 46.3125 1.12939453 C46.40785055 4.26502544 46.43799573 7.37850057 46.42602539 10.5144043 C46.42614593 11.51565558 46.42626646 12.51690687 46.42639065 13.54849911 C46.42564122 16.8059552 46.41801164 20.06335485 46.41015625 23.32080078 C46.40868692 25.3253171 46.40766616 27.3298338 46.40710449 29.33435059 C46.40185054 36.78687107 46.38788947 44.23938335 46.375 51.69189453 C46.3440625 76.65845703 46.3440625 76.65845703 46.3125 102.12939453 C79.6425 101.79939453 112.9725 101.46939453 147.3125 101.12939453 C147.6019291 68.26432797 147.6019291 68.26432797 147.88061523 35.39916992 C147.9395752 29.05603027 147.9395752 29.05603027 147.96839905 26.09056091 C147.98767398 24.01062092 148.00498302 21.93066216 148.02076721 19.85069275 C148.04499259 16.70793629 148.07537257 13.56529504 148.10717773 10.42260742 C148.11294799 9.48936929 148.11871824 8.55613115 148.12466335 7.59461308 C148.19847366 1.24342087 148.19847366 1.24342087 149.3125 0.12939453 C150.87249048 0.03092487 152.43690544 0.00140835 154 0 C154.99773437 -0.00315216 155.99546875 -0.00630432 157.0234375 -0.009552 C158.10882812 -0.00752777 159.19421875 -0.00550354 160.3125 -0.00341797 C161.97152344 -0.00485306 161.97152344 -0.00485306 163.6640625 -0.00631714 C166.00781308 -0.00699913 168.35156553 -0.00514351 170.6953125 -0.00097656 C174.29691788 0.00437139 177.89839853 -0.00092093 181.5 -0.00732422 C183.77083361 -0.00666344 186.04166714 -0.00538229 188.3125 -0.00341797 C189.39789062 -0.0054422 190.48328125 -0.00746643 191.6015625 -0.009552 C192.59929687 -0.00639984 193.59703125 -0.00324768 194.625 0 C195.50800781 0.00079559 196.39101563 0.00159119 197.30078125 0.00241089 C199.3125 0.12939453 199.3125 0.12939453 200.3125 1.12939453 C200.40981942 2.49935003 200.43805408 3.87428809 200.43834114 5.24769592 C200.44094889 6.14081954 200.44355664 7.03394316 200.44624341 7.95413113 C200.44401268 8.94661893 200.44178196 9.93910673 200.43948364 10.96166992 C200.44104363 12.00720819 200.44260362 13.05274645 200.44421089 14.12996769 C200.44822581 17.66234271 200.44502934 21.19467538 200.44189453 24.72705078 C200.44324835 27.24771144 200.44502818 29.7683719 200.44720459 32.28903198 C200.45130506 38.44213078 200.45068558 44.59521369 200.44779195 50.74831271 C200.44553813 55.74685183 200.4452253 60.74538752 200.44631577 65.743927 C200.446469 66.45399527 200.44662223 67.16406353 200.44678011 67.89564902 C200.44709982 69.33791375 200.44742403 70.78017849 200.4477527 72.22244322 C200.45060765 85.76242673 200.44732023 99.30240349 200.44195233 112.84238589 C200.43748428 124.47288955 200.43826021 136.10338324 200.44287109 147.73388672 C200.44821658 161.22377277 200.45033296 174.71365289 200.44725883 188.20353985 C200.44694026 189.64064725 200.44662589 191.07775466 200.44631577 192.51486206 C200.44616149 193.22203859 200.44600721 193.92921512 200.44584826 194.65782124 C200.44498303 199.6532401 200.44644612 204.64865521 200.44879532 209.64407349 C200.45188466 216.3613268 200.44970094 223.07855827 200.44390106 229.7958107 C200.44257271 232.26905409 200.44296884 234.74229906 200.44516373 237.21554184 C200.44787228 240.57608953 200.44449773 243.93657545 200.43948364 247.29711914 C200.44171436 248.28960694 200.44394509 249.28209475 200.44624341 250.30465794 C200.44363566 251.19778155 200.44102791 252.09090517 200.43834114 253.01109314 C200.43817879 253.78783858 200.43801644 254.56458403 200.43784916 255.36486721 C200.3125 257.12939453 200.3125 257.12939453 199.3125 258.12939453 C197.75250952 258.2278642 196.18809456 258.25738071 194.625 258.25878906 C193.62726563 258.26194122 192.62953125 258.26509338 191.6015625 258.26834106 C190.51617188 258.26631683 189.43078125 258.2642926 188.3125 258.26220703 C186.65347656 258.26364212 186.65347656 258.26364212 184.9609375 258.2651062 C182.61718692 258.2657882 180.27343447 258.26393257 177.9296875 258.25976562 C174.32808212 258.25441767 170.72660147 258.25971 167.125 258.26611328 C164.85416639 258.2654525 162.58333286 258.26417135 160.3125 258.26220703 C159.22710938 258.26423126 158.14171875 258.26625549 157.0234375 258.26834106 C156.02570313 258.2651889 155.02796875 258.26203674 154 258.25878906 C153.11699219 258.25799347 152.23398437 258.25719788 151.32421875 258.25637817 C149.3125 258.12939453 149.3125 258.12939453 148.3125 257.12939453 C148.20482174 255.6876999 148.16569047 254.24081595 148.15428162 252.79515076 C148.13959839 251.39213211 148.13959839 251.39213211 148.12461853 249.96076965 C148.11886307 248.92643295 148.1131076 247.89209625 148.10717773 246.82641602 C148.09727814 245.74362366 148.08737854 244.6608313 148.07717896 243.54522705 C148.04545588 239.94700344 148.02076397 236.34876661 147.99609375 232.75048828 C147.97553355 230.26326646 147.95453734 227.77604821 147.93312073 225.28883362 C147.88346517 219.39921565 147.83822497 213.50957656 147.79509836 207.61990744 C147.73228324 199.08395452 147.66059434 190.54807543 147.58997345 182.01218414 C147.49184274 170.05129005 147.40306957 158.09035904 147.3125 146.12939453 C113.9825 145.79939453 80.6525 145.46939453 46.3125 145.12939453 C46.32410156 153.20279297 46.33570313 161.27619141 46.34765625 169.59423828 C46.3527628 174.69384845 46.35757655 179.7934555 46.36132812 184.89306641 C46.36731738 192.99618181 46.37427191 201.09928605 46.38793945 209.20239258 C46.39894714 215.73163879 46.40477625 222.26087747 46.40737724 228.79013252 C46.40923199 231.28733065 46.41285354 233.78452809 46.41823006 236.28172112 C46.42543684 239.76603522 46.4264911 243.25029884 46.42602539 246.73461914 C46.42962067 247.77830658 46.43321594 248.82199402 46.43692017 249.89730835 C46.4355455 250.84106827 46.43417084 251.78482819 46.43275452 252.75718689 C46.43367631 253.58219161 46.4345981 254.40719633 46.43554783 255.25720119 C46.3125 257.12939453 46.3125 257.12939453 45.3125 258.12939453 C43.75250952 258.2278642 42.18809456 258.25738071 40.625 258.25878906 C39.62726563 258.26194122 38.62953125 258.26509338 37.6015625 258.26834106 C36.51617187 258.26631683 35.43078125 258.2642926 34.3125 258.26220703 C33.20648438 258.26316376 32.10046875 258.26412048 30.9609375 258.2651062 C28.61718692 258.2657882 26.27343447 258.26393257 23.9296875 258.25976562 C20.32808212 258.25441767 16.72660147 258.25971 13.125 258.26611328 C10.85416639 258.2654525 8.58333286 258.26417135 6.3125 258.26220703 C5.22710937 258.26423126 4.14171875 258.26625549 3.0234375 258.26834106 C2.02570313 258.2651889 1.02796875 258.26203674 0 258.25878906 C-0.88300781 258.25799347 -1.76601563 258.25719788 -2.67578125 258.25637817 C-4.6875 258.12939453 -4.6875 258.12939453 -5.6875 257.12939453 C-5.78481942 255.75943903 -5.81305408 254.38450097 -5.81334114 253.01109314 C-5.81594889 252.11796952 -5.81855664 251.22484591 -5.82124341 250.30465794 C-5.81901268 249.31217013 -5.81678196 248.31968233 -5.81448364 247.29711914 C-5.81682363 245.72881175 -5.81682363 245.72881175 -5.81921089 244.12882137 C-5.82322581 240.59644635 -5.82002934 237.06411369 -5.81689453 233.53173828 C-5.81824835 231.01107762 -5.82002818 228.49041716 -5.82220459 225.96975708 C-5.82630506 219.81665828 -5.82568558 213.66357538 -5.82279195 207.51047635 C-5.82053813 202.51193723 -5.8202253 197.51340154 -5.82131577 192.51486206 C-5.821469 191.8047938 -5.82162223 191.09472553 -5.82178011 190.36314005 C-5.82209982 188.92087531 -5.82242403 187.47861057 -5.8227527 186.03634584 C-5.82560765 172.49636233 -5.82232023 158.95638558 -5.81695233 145.41640317 C-5.81248428 133.78589951 -5.81326021 122.15540583 -5.81787109 110.52490234 C-5.82321658 97.03501629 -5.82533296 83.54513618 -5.82225883 70.05524921 C-5.82194026 68.61814181 -5.82162589 67.18103441 -5.82131577 65.743927 C-5.82108435 64.68316221 -5.82108435 64.68316221 -5.82084826 63.60096782 C-5.81998303 58.60554897 -5.82144612 53.61013385 -5.82379532 48.61471558 C-5.82688466 41.89746226 -5.82470094 35.18023079 -5.81890106 28.46297836 C-5.81757271 25.98973497 -5.81796884 23.51649 -5.82016373 21.04324722 C-5.82287228 17.68269953 -5.81949773 14.32221361 -5.81448364 10.96166992 C-5.81671436 9.96918212 -5.81894509 8.97669432 -5.82124341 7.95413113 C-5.81733178 6.6144457 -5.81733178 6.6144457 -5.81334114 5.24769592 C-5.81317879 4.47095048 -5.81301644 3.69420504 -5.81284916 2.89392185 C-5.55232114 -0.77350442 -3.10609162 0.0027986 0 0 Z " fill="#FDFDFE" transform="translate(386.6875,213.87060546875)"/>
</svg>
